<?xml version="1.0" encoding="utf-8"?>
<!-- Generator: Adobe Illustrator 14.0.0, SVG Export Plug-In  -->
<!DOCTYPE svg PUBLIC "-//W3C//DTD SVG 1.1//EN" "http://www.w3.org/Graphics/SVG/1.1/DTD/svg11.dtd" [
	<!ENTITY ns_flows "http://ns.adobe.com/Flows/1.0/">
]>
<svg version="1.1"
	 xmlns="http://www.w3.org/2000/svg" xmlns:xlink="http://www.w3.org/1999/xlink" xmlns:a="http://ns.adobe.com/AdobeSVGViewerExtensions/3.0/"
	 x="0px" y="0px" width="215px" height="180px" viewBox="-11.086 -28.379 215 180" enable-background="new -11.086 -28.379 215 180"
	 xml:space="preserve">
<defs>
</defs>
<path display="none" fill="#9A9999" d="M76.745,85.293h67.021v8.367H70.02L56.43,31.985H37.842v-8.366H63.15L76.745,85.293z
	 M84.355,99.228c-6.252,0-11.322,5.066-11.322,11.324c0,6.252,5.07,11.33,11.322,11.33c6.257,0,11.328-5.078,11.328-11.33
	C95.684,104.295,90.613,99.228,84.355,99.228z M131.053,99.228c-6.252,0-11.326,5.066-11.326,11.324
	c0,6.252,5.074,11.33,11.326,11.33s11.326-5.078,11.326-11.33C142.379,104.295,137.305,99.228,131.053,99.228z M80.979,79.029
	l-9.934-51.454h16.253l36.028-26.513l16.117,21.893l-0.695,4.621h13.953L141.083,79.03L80.979,79.029L80.979,79.029z M136.818,24.74
	l-3.857,2.835h3.434L136.818,24.74z M91.225,27.571h8.469l-0.51-0.69l1.642-1.208l1.397,1.897h2.076l-2.132-2.893l1.644-1.205
	l3.014,4.097h2.352l-3.842-5.218l1.643-1.207l4.732,6.424h2.706l-5.623-7.641l1.638-1.213l6.516,8.854h2.352l-7.338-9.977
	l1.639-1.203l8.225,11.178h7.21l7.089-5.209L122.844,4.306L91.225,27.571z M128.887,23.997l-9.025-12.274l-1.65,1.209l9.034,12.271
	L128.887,23.997z M125.729,26.332l-9.033-12.279l-1.635,1.207l9.039,12.272L125.729,26.332z"/>
<path fill="#9A9999" d="M81.007,0.255L9.666,15.136c-6.54,1.364-10.774,7.831-9.41,14.371l17.361,83.231
	c1.364,6.538,7.831,10.773,14.371,9.409l71.34-14.88c6.539-1.364,10.774-7.83,9.41-14.371L95.376,9.665
	C94.013,3.126,87.546-1.109,81.007,0.255z M100.849,95.377l-71.342,14.881L12.146,27.025l71.341-14.88L100.849,95.377z
	 M64.922,71.852l-29.726,6.199l1.24,5.946l29.726-6.2L64.922,71.852z M77.797,44.352l-23.781,4.959l1.241,5.945l23.78-4.96
	L77.797,44.352z M52.776,43.366l23.78-4.96l-2.48-11.89l-23.78,4.96L52.776,43.366z M44.351,32.716l-17.835,3.72l4.96,23.781
	l17.835-3.721L44.351,32.716z M44.607,63.682l-11.89,2.48l1.239,5.944l11.89-2.48L44.607,63.682z M51.792,68.387l29.725-6.201
	l-1.24-5.945l-29.726,6.2L51.792,68.387z M85.237,80.021l-47.561,9.921l1.24,5.945l47.56-9.92L85.237,80.021z M72.106,76.556
	l11.89-2.48l-1.24-5.944l-11.89,2.479L72.106,76.556z"/>
<rect x="97.926" y="24.713" transform="matrix(0.9587 0.2845 -0.2845 0.9587 24.757 -35.3999)" fill="#FFFFFF" width="72.633" height="85.626"/>
<path fill="#9A9999" d="M185.798,24.627L115.89,4.043c-6.409-1.887-13.196,1.812-15.083,8.22L76.791,93.826
	c-1.886,6.406,1.813,13.193,8.221,15.081l69.91,20.585c6.407,1.887,13.194-1.813,15.082-8.222l24.016-81.561
	C195.905,33.301,192.206,26.514,185.798,24.627z M158.353,117.838L88.443,97.255l24.014-81.561l69.91,20.584L158.353,117.838z
	 M137.799,80.132l-29.126-8.576l-1.717,5.826l29.129,8.576L137.799,80.132z M162.138,61.977l-23.303-6.861l-1.715,5.826
	l23.303,6.861L162.138,61.977z M140.551,49.289l23.303,6.861l3.432-11.65l-23.304-6.861L140.551,49.289z M138.155,35.923
	l-17.477-5.146l-6.861,23.304l17.477,5.145L138.155,35.923z M123.754,63.335l-11.651-3.43l-1.716,5.826l11.652,3.431L123.754,63.335
	z M127.864,70.876l29.128,8.577l1.715-5.826l-29.127-8.576L127.864,70.876z M151.846,96.931l-46.604-13.724l-1.717,5.827
	l46.606,13.723L151.846,96.931z M141.91,87.675l11.652,3.429l1.714-5.825l-11.651-3.43L141.91,87.675z"/>
</svg>
